<svg width="305" height="225" viewBox="0 0 305 225" fill="none" xmlns="http://www.w3.org/2000/svg">
<path d="M56.9202 223.011C88.3564 223.011 113.84 219.088 113.84 214.249C113.84 209.41 88.3564 205.488 56.9202 205.488C25.4841 205.488 0 209.41 0 214.249C0 219.088 25.4841 223.011 56.9202 223.011Z" fill="#DFDFEB"/>
<path d="M149.955 224.763C206.746 224.763 252.784 220.841 252.784 216.002C252.784 211.163 206.746 207.241 149.955 207.241C93.164 207.241 47.1257 211.163 47.1257 216.002C47.1257 220.841 93.164 224.763 149.955 224.763Z" fill="#DFDFEB"/>
<path d="M121.981 0.00784256C111.363 0.297283 102.577 8.80683 101.966 19.4175C101.607 25.6565 104.023 31.3338 108.091 35.3394C108.692 35.9311 108.971 36.7748 108.83 37.6067L107.303 46.6495L116.701 41.1711C117.236 40.8591 117.866 40.7444 118.474 40.8671C120.771 41.3308 123.205 41.416 125.713 41.036C134.997 39.629 142.24 31.9395 143.096 22.5842C144.236 10.1157 134.282 -0.327158 121.981 0.00784256Z" fill="#D3DDF7"/>
<path d="M121.616 27.7818L121.558 22.8479C122.278 22.6726 122.934 22.4443 123.528 22.1618C124.121 21.8799 124.641 21.554 125.089 21.1836C125.536 20.8143 125.911 20.4005 126.213 19.9428C126.514 19.4856 126.742 18.9941 126.898 18.4688C127.054 17.9435 127.131 17.3887 127.131 16.805C127.131 15.9683 126.927 15.1799 126.518 14.4402C126.11 13.7011 125.526 13.1023 124.767 12.6446C124.009 12.1874 123.104 11.9585 122.054 11.9585C120.926 11.9585 119.88 12.2699 118.917 12.8928C117.954 13.5161 117.22 14.5763 116.714 16.075L116.189 15.7245C116.637 14.3041 117.386 13.2138 118.436 12.4549C119.487 11.6953 120.682 11.3159 122.025 11.3159C123.173 11.3159 124.18 11.5597 125.045 12.0459C125.911 12.5326 126.587 13.1897 127.073 14.0168C127.559 14.8438 127.803 15.7732 127.803 16.805C127.803 17.5838 127.671 18.3133 127.409 18.9946C127.146 19.6758 126.776 20.2987 126.3 20.8631C125.823 21.428 125.245 21.919 124.564 22.3371C123.882 22.7562 123.115 23.0719 122.259 23.2863L122.201 27.7823L121.616 27.7818ZM121.266 31.4603C121.266 31.2073 121.334 30.9983 121.471 30.8327C121.607 30.6676 121.792 30.5845 122.025 30.5845C122.297 30.5845 122.492 30.6628 122.609 30.8182C122.726 30.9742 122.784 31.1881 122.784 31.4603C122.784 31.694 122.72 31.8983 122.594 32.0735C122.467 32.2488 122.277 32.3362 122.024 32.3362C121.771 32.3362 121.582 32.2579 121.455 32.1025C121.328 31.947 121.266 31.7332 121.266 31.4603Z" fill="black"/>
<path d="M62.294 201.919L63.209 208.819C63.209 208.819 80.3631 216.13 78.772 216.236C77.1809 216.342 52.5295 214.75 52.5295 214.75L53.9802 202.224L62.294 201.919Z" fill="black"/>
<path d="M57.5154 89.276C57.5154 89.276 56.1482 102.44 55.1234 103.124C54.098 103.808 52.7314 104.15 52.7314 104.15L54.9525 89.1055L57.5154 89.276Z" stroke="#424242" stroke-miterlimit="10"/>
<path d="M30.4269 80.2273C30.4269 80.2273 23.4739 95.9358 25.4925 104.688L64.035 98.8056L63.2309 82.4865L30.4269 80.2273Z" fill="black"/>
<path d="M64.035 98.8061C64.035 98.8061 64.253 136.495 64.5209 149.626C64.7887 162.757 67.0837 203.308 67.0837 203.308C67.0837 203.308 59.8864 207.279 52.3902 204.07C51.7907 203.813 45.3332 98.4545 45.3332 98.4545L64.035 98.8061Z" fill="black"/>
<path d="M26.1311 100.023L9.86731 203.652C9.86731 203.652 16.9698 210.31 25.9414 204.251L42.4789 119.604L50.5098 114.209L51.7061 98.7686L26.1311 100.023Z" fill="black"/>
<path d="M21.8604 201.087L23.3411 207.04C23.3411 207.04 34.1631 220.063 32.5682 220.063C30.9734 220.063 13.2027 212.001 13.2027 212.001L15.4811 199.599L21.8604 201.087Z" fill="black"/>
<path d="M32.0716 86.5858C32.0716 86.5858 21.8223 129.701 14.2034 205.822" stroke="#424242" stroke-miterlimit="10"/>
<path d="M39.0996 91.2233C39.0996 91.2233 35.5109 100.2 29.3802 100.349" stroke="#424242" stroke-miterlimit="10"/>
<path d="M54.2582 204.691L49.0146 115.485L54.1371 110.11" stroke="#424242" stroke-miterlimit="10"/>
<path d="M54.1896 35.095C56.8564 34.5488 58.8026 34.157 58.8026 34.157L75.4355 43.2459C75.4639 43.2615 75.4923 43.277 75.5207 43.2926C80.971 46.3017 83.3801 51.4071 83.2366 58.5621L84.0444 68.9268L75.031 61.6088L67.4116 76.3096L62.5725 93.6648C36.7489 103.06 26.7182 86.1913 26.7182 86.1913L35.2741 67.6602L38.73 50.5457C40.3719 41.7634 45.4425 36.8868 54.1896 35.095Z" fill="#9EC68A"/>
<path d="M193.82 64.3723C193.82 64.3723 191.215 75.2788 176.468 88.5861C176.468 88.5861 175.061 86.5943 178.209 78.9188C181.357 71.2438 193.203 61.651 193.82 64.3723Z" fill="#7E9E6E"/>
<path d="M193.82 64.3723C193.82 64.3723 180.799 72.4847 176.468 88.5861C176.468 88.5861 175.473 94.1396 177.079 99.1094" stroke="black" stroke-miterlimit="10" stroke-linecap="round"/>
<path d="M159.783 71.1351C159.783 71.1351 163.445 68.7107 157.859 61.7111C152.553 55.0615 146.87 49.0401 135.19 46.218C135.19 46.218 137.729 62.4556 145.182 66.7656C152.636 71.075 159.783 71.1351 159.783 71.1351Z" fill="#7E9E6E"/>
<path d="M130.356 81.0677C130.356 81.0677 142.509 84.5479 163.859 78.9092C163.859 78.9092 162.702 76.6639 153.408 75.3379C144.114 74.0118 128.038 79.1151 130.356 81.0677Z" fill="#7E9E6E"/>
<path d="M130.356 81.0676C130.356 81.0676 145.645 74.1838 163.859 78.9091C163.859 78.9091 165.725 79.5057 167.492 82.2109" stroke="black" stroke-miterlimit="10" stroke-linecap="round"/>
<path d="M139.856 92.8951C139.856 92.8951 152.488 102.427 173.838 96.7886C173.838 96.7886 170.245 89.1699 160.951 87.8438C151.657 86.5177 137.538 90.9424 139.856 92.8951Z" fill="#7E9E6E"/>
<path d="M139.856 92.895C139.856 92.895 154.496 87.1706 173.838 96.7885C173.838 96.7885 176.109 97.9795 177.875 100.685" stroke="black" stroke-miterlimit="10" stroke-linecap="round"/>
<path d="M187.208 53.4631C187.208 53.4631 191.13 53.2461 181.068 61.4286C171.567 69.1545 172.704 69.2928 172.704 69.2928C172.704 69.2928 176.903 57.0892 187.208 53.4631Z" fill="black"/>
<path d="M165.91 73.0797C165.91 73.0797 168.745 74.3875 174.297 69.9092C179.849 65.4309 182.491 54.8262 187.208 53.4637C187.208 53.4637 175.401 56.4605 165.91 73.0797Z" fill="#7E9E6E"/>
<path d="M182.613 111.169C177.463 98.8698 170.119 84.8014 159.783 71.135C159.783 71.135 157.271 67.3648 148.338 57.4365C139.405 47.5082 135.191 46.218 135.191 46.218" stroke="black" stroke-miterlimit="10" stroke-linecap="round"/>
<path d="M185.806 53.9471C185.806 53.9471 174.49 58.047 165.91 73.0791C163.831 76.7207 165.839 79.837 167.491 82.2104" stroke="black" stroke-miterlimit="10" stroke-linecap="round"/>
<path d="M300.367 195.604C300.367 195.604 289.393 198.899 271.081 187.026C271.081 187.026 272.283 183.836 280.566 183.323C288.848 182.81 302.566 193.039 300.367 195.604Z" fill="#7E9E6E"/>
<path d="M299.956 194.797C299.956 194.797 287.901 185.306 271.295 186.712C271.295 186.712 265.737 187.665 261.613 190.867" stroke="black" stroke-miterlimit="10" stroke-linecap="round"/>
<path d="M276.48 171.131C276.48 171.131 280.005 173.752 284.683 166.115C289.127 158.86 292.852 151.464 291.53 139.514C291.53 139.514 277.133 147.429 275.619 155.907C274.104 164.386 276.48 171.131 276.48 171.131Z" fill="#7E9E6E"/>
<path d="M304.786 184.772C304.786 184.772 307.09 187.956 294.769 183.915C283.135 180.1 283.634 181.13 283.634 181.13C283.634 181.13 296.164 178.062 304.786 184.772Z" fill="black"/>
<path d="M276.775 177.461C276.775 177.461 277.209 180.554 283.977 182.804C290.746 185.053 301.089 181.54 304.786 184.772C304.786 184.772 295.879 176.457 276.775 177.461Z" fill="#7E9E6E"/>
<path d="M246.624 206.233C256.43 197.202 267.153 185.506 276.48 171.131C276.48 171.131 279.168 167.484 285.46 155.701C291.751 143.918 291.529 139.514 291.529 139.514" stroke="black" stroke-miterlimit="10" stroke-linecap="round"/>
<path d="M303.62 183.854C303.62 183.854 294.052 176.55 276.775 177.461C272.59 177.682 270.694 179.721 267.556 183.636" stroke="black" stroke-miterlimit="10" stroke-linecap="round"/>
<path d="M186.245 86.3253C189.603 86.3253 192.855 85.1461 195.433 82.9935L202.588 77.0203C205.162 74.871 208.22 73.7191 211.354 73.7191H246.86C250.082 73.7191 252.694 76.3327 252.694 79.5562V86.3248V208.166C252.694 213.729 248.187 218.239 242.627 218.239H65.6308C61.3066 218.239 57.8008 214.731 57.8008 210.405V94.1595C57.8008 89.8329 61.3066 86.3253 65.6308 86.3253H186.245Z" fill="#333969"/>
<path d="M57.8014 211.061C57.8014 211.061 69.847 188.454 71.0518 185.858L103.972 118.755C104.8 116.972 106.586 115.831 108.551 115.831H230.885C235.333 115.831 241.765 113.498 245.18 110.647L250.116 106.526C252.691 104.377 255.749 103.225 258.882 103.225H292.672C296.269 103.225 298.712 106.88 297.338 110.206L256.478 209.082C254.188 214.624 248.785 218.239 242.791 218.239H60.0107C58.8193 218.239 57.7189 217.218 57.7195 216.026L57.8014 211.061Z" fill="#7584F1"/>
<path d="M107.561 122.212L59.2543 216.165" stroke="black" stroke-miterlimit="10" stroke-linejoin="round"/>
<path d="M127.466 138.403H169.077C170.212 138.403 171.268 137.831 171.877 136.888C173.283 134.711 171.696 131.862 169.077 131.862H127.466C126.331 131.862 125.275 132.434 124.666 133.376C123.26 135.554 124.847 138.403 127.466 138.403Z" stroke="black" stroke-miterlimit="10" stroke-linejoin="round"/>
<path d="M205.304 170.694L172.906 190.006" stroke="black" stroke-miterlimit="10" stroke-linecap="round" stroke-linejoin="round"/>
<path d="M178.815 169.763L199.173 190.123" stroke="black" stroke-miterlimit="10" stroke-linecap="round" stroke-linejoin="round"/>
<path d="M194.407 197.953C207.374 194.364 215.689 183.509 212.979 173.707C210.269 163.905 197.56 158.868 184.593 162.457C171.626 166.045 163.311 176.901 166.021 186.703C168.731 196.505 181.44 201.542 194.407 197.953Z" stroke="black" stroke-miterlimit="10" stroke-linecap="round" stroke-linejoin="round"/>
<path d="M66.0681 78.9114L72.0761 85.6618C72.0761 85.6618 66.4399 92.3157 60.7152 88.3745L59.797 87.0564L66.0681 78.9114Z" fill="#9EC68A"/>
<path d="M52.1073 38.6337C52.1073 38.6337 60.3391 40.7916 53.8623 64.6013" stroke="black" stroke-miterlimit="10" stroke-linecap="round"/>
<path d="M66.5721 79.6194C62.1278 74.6233 56.6957 68.3457 53.4868 64.0175" stroke="black" stroke-miterlimit="10" stroke-linecap="round"/>
<path d="M60.7151 88.3744C56.4498 83.999 50.686 77.7712 48.1703 75.4632C44.25 71.8661 40.1812 66.0784 41.5076 58.643L41.3485 52.6816" stroke="black" stroke-miterlimit="10" stroke-linecap="round"/>
<path d="M86.3191 85.1793C81.0664 82.3396 78.6466 78.824 76.6211 76.2179C71.7889 70.0019 70.0768 69.2322 71.4927 61.9973L71.5703 54.4258L82.0537 65.7772C86.0571 71.0906 95.2864 80.6158 98.6962 84.3689C98.6962 84.3689 94.6934 89.7064 86.3191 85.1793Z" fill="#9EC68A"/>
<path d="M64.9393 83.262C65.4225 83.1296 65.9234 83.0889 66.4216 83.1414C68.2195 83.3317 73.0371 83.8377 73.5809 83.8447C74.2505 83.8532 74.7948 82.8531 76.2316 86.4791C77.6684 90.1046 77.4107 90.4423 77.4021 90.9161C77.3941 91.3899 76.3516 98.352 75.232 97.3063C74.1123 96.2606 74.2629 95.6517 74.2629 95.6517C74.2629 95.6517 73.6591 98.4791 73.3414 98.3703C73.0238 98.2609 71.8468 98.2577 72.0354 96.2611C72.0354 96.2611 71.3936 98.202 70.732 97.719C70.0704 97.2366 70.2188 95.1387 70.2188 95.1387C70.2188 95.1387 69.5105 96.7135 68.7016 95.6624C67.8932 94.6108 68.4954 92.1757 68.4954 92.1757L67.8177 90.3662L66.3514 89.7321C66.3514 89.7321 61.4159 91.0238 60.5668 87.5961C59.9148 84.9622 63.3252 83.7037 64.9393 83.262Z" fill="#DB9C7F"/>
<path d="M74.8666 87.7065L75.7934 91.6033L74.2628 95.6517" stroke="black" stroke-miterlimit="10" stroke-linecap="round"/>
<path d="M72.4875 87.5624L73.688 91.5561L72.0348 96.2606" stroke="black" stroke-miterlimit="10" stroke-linecap="round"/>
<path d="M70.4003 88.0084L71.0994 91.8483L70.2996 94.7244" stroke="black" stroke-miterlimit="10" stroke-linecap="round"/>
<path d="M66.3697 13.9744C64.6184 15.6146 64.5927 17.609 64.5927 17.609C64.5927 17.609 63.9906 16.8651 63.2459 16.626" stroke="black" stroke-miterlimit="10" stroke-linecap="round"/>
<path d="M91.3858 82.1466C93.0513 81.7441 94.8074 82.0163 96.3321 82.7978C98.3383 83.8264 101.472 85.4194 101.881 85.5416C102.488 85.7228 102.884 85.3942 102.964 89.0824C102.996 90.5398 102.992 91.5459 102.862 91.9752C102.732 92.404 99.7874 96.8057 98.8204 96.186C98.7942 96.1689 98.776 96.1549 98.7519 96.1389C98.5065 96.4685 98.1781 96.8726 97.8556 97.1482C97.614 97.3545 96.2694 97.3266 96.9572 95.5594C96.9572 95.5594 96.0251 97.6021 95.3003 97.3299C94.3558 96.975 94.509 96.0665 94.8535 95.2979C94.4147 95.8907 93.8715 96.3736 93.4853 95.8607C92.7272 94.8541 94.4442 91.2741 94.4442 91.2741L94.6446 89.106L93.3342 87.9327C93.3342 87.9327 88.6505 88.0474 88.7646 84.7097C88.8165 83.1784 90.0572 82.4677 91.3858 82.1466Z" fill="#DB9C7F"/>
<path d="M101.665 87.7318L101.605 91.6864L98.7219 95.8838" stroke="black" stroke-miterlimit="10" stroke-linecap="round"/>
<path d="M99.6176 87.7628L99.3921 91.8391L96.9573 95.5589" stroke="black" stroke-miterlimit="10" stroke-linecap="round"/>
<path d="M97.5391 87.8695L97.2471 91.3021L95.1691 94.7507" stroke="black" stroke-miterlimit="10" stroke-linecap="round"/>
<path d="M91.6129 86.9545C91.6129 86.9545 92.0833 90.4927 90.9417 91.2693C89.8006 92.046 87.9599 84.7291 89.2258 84.6358C91.081 84.4986 91.6129 86.9545 91.6129 86.9545Z" fill="#DB9C7F"/>
<path d="M93.1682 86.4432C93.1682 86.4432 92.033 86.6254 91.7089 87.959" stroke="black" stroke-miterlimit="10" stroke-linecap="round"/>
<path d="M71.1392 69.3207L76.657 62.1254C81.7013 55.4485 78.3397 48.3899 78.3397 48.3899" stroke="black" stroke-miterlimit="10" stroke-linecap="round"/>
<path d="M84.0449 68.9267C84.0449 68.9267 80.7942 64.4174 80.0555 66.4134" stroke="black" stroke-miterlimit="10" stroke-linecap="round"/>
<path d="M85.3007 31.3992L84.3648 31.202" stroke="white" stroke-miterlimit="10"/>
<path d="M65.7353 30.5272L58.8027 34.157C58.8027 34.157 58.6205 42.3888 66.4061 48.6455L69.9021 45.2468L73.4255 48.7731C73.4255 48.7731 74.7659 47.7199 75.1639 42.9404L74.5355 37.1376L65.7353 30.5272Z" fill="white"/>
<path d="M74.5361 37.1376L65.7353 30.5272L58.8027 34.157" stroke="black" stroke-miterlimit="10" stroke-linecap="round" stroke-linejoin="round"/>
<path d="M63.7227 31.7755C63.7227 31.7755 65.8661 44.3147 69.0396 45.2034C72.2127 46.0915 74.1921 39.8214 74.1921 39.8214L68.0475 22.7048L63.7227 31.7755Z" fill="#DB9C7F"/>
<path d="M75.3707 41.3292L75.4087 42.8879C75.4377 42.904 75.3455 43.3692 73.8005 43.5466C67.0125 43.344 66.4752 35.7017 65.9229 29.6219C65.9229 29.6219 75.9975 40.1157 75.3707 41.3292Z" fill="black"/>
<path d="M84.87 24.2822C84.87 24.2822 86.6137 40.1757 77.2955 42.7582C67.9773 45.3406 65.745 30.137 66.0664 24.8788C66.3878 19.6207 69.0118 17.0237 75.5427 16.7884C85.2043 16.44 84.87 24.2822 84.87 24.2822Z" fill="#DB9C7F"/>
<path d="M70.92 19.9744C70.92 19.9744 70.7453 23.3148 68.5296 23.9821L66.9364 28.8945C66.9364 28.8945 65.6014 26.7114 64.1346 25.9379C64.1346 25.9379 62.5146 19.4507 64.5541 16.8731C66.5935 14.2955 69.4285 12.9887 76.2873 13.5596C81.5078 13.9937 84.5619 17.6991 85.5594 19.5842C85.883 20.1952 86.6678 21.9126 84.833 23.5833C84.833 23.5833 84.8577 22.3194 83.7862 20.8406C83.7862 20.8406 81.2866 25.9535 70.92 19.9744Z" fill="black"/>
<path d="M61.9864 29.7366C62.5612 31.8339 64.2101 33.22 65.6694 32.833C67.1287 32.446 67.8466 30.4323 67.2717 28.3349C66.6975 26.2375 65.048 24.8515 63.5887 25.2384C62.1289 25.626 61.4116 27.6397 61.9864 29.7366Z" fill="#DB9C7F"/>
<path d="M75.4215 30.4371C75.3948 30.9774 75.6514 31.4293 75.9948 31.447C76.3381 31.4646 76.6376 31.0407 76.6639 30.5004C76.6906 29.9601 76.434 29.5082 76.0906 29.4906C75.7478 29.4734 75.4478 29.8974 75.4215 30.4371Z" fill="black"/>
<path d="M82.6087 30.8815C82.5556 31.3875 82.763 31.8248 83.0715 31.8575C83.3801 31.8902 83.6737 31.507 83.7267 31.0005C83.7798 30.4945 83.5724 30.0571 83.2639 30.0244C82.9548 29.9917 82.6617 30.3755 82.6087 30.8815Z" fill="black"/>
<path d="M73.3698 26.1588C73.3698 26.1588 75.8378 26.6878 76.0023 24.346" stroke="black" stroke-miterlimit="10" stroke-linecap="round"/>
<path d="M81.7328 25.9669C81.7328 25.9669 82.3618 28.1436 84.217 26.8834" stroke="black" stroke-miterlimit="10" stroke-linecap="round"/>
<path d="M74.9904 39.1444C74.9904 39.1444 74.1766 35.8271 71.6512 37.7289L74.9904 39.1444Z" fill="black"/>
<path d="M63.451 27.911C63.451 27.911 65.0925 26.4981 65.9893 29.0816C65.9893 29.0816 65.0303 30.1 65.6357 30.8992C65.6357 30.8992 64.6902 31.1136 64.2241 30.2795" stroke="black" stroke-miterlimit="10" stroke-linecap="round" stroke-linejoin="round"/>
<path d="M64.1619 28.8993C64.1619 28.8993 64.2535 28.3253 64.8905 27.6697" stroke="black" stroke-miterlimit="10" stroke-linecap="round" stroke-linejoin="round"/>
<path d="M81.1837 30.7995C81.1837 32.3346 82.1266 33.5792 83.2901 33.5792C84.4537 33.5792 85.3966 32.3346 85.3966 30.7995C85.3966 29.2644 84.4537 28.0198 83.2901 28.0198C82.1266 28.0198 81.1837 29.2644 81.1837 30.7995Z" stroke="white" stroke-miterlimit="10"/>
<path d="M73.3002 30.4194C73.3002 32.0462 74.5007 33.3648 75.9814 33.3648C77.4621 33.3648 78.6627 32.0462 78.6627 30.4194C78.6627 28.7927 77.4621 27.4741 75.9814 27.4741C74.5007 27.4736 73.3002 28.7927 73.3002 30.4194Z" stroke="white" stroke-miterlimit="10"/>
<path d="M81.2785 31.604C81.2785 31.604 80.6265 28.8356 78.5115 31.4078" stroke="white" stroke-miterlimit="10"/>
<path d="M73.3564 29.3046L67.1255 27.9003" stroke="white" stroke-miterlimit="10"/>
<path d="M81.5394 32.8288C81.848 33.2206 81.9123 33.6875 81.7564 34.1924C81.6026 34.6909 81.0948 34.9942 80.5805 34.9835C80.3421 34.9787 80.1133 34.9144 79.8878 34.8436C79.7892 34.8131 79.5942 34.7075 79.4882 34.7541C78.9744 34.9814 78.376 34.5327 78.5475 34.1822" stroke="black" stroke-miterlimit="10" stroke-linecap="round"/>
</svg>
