<svg width="24" height="24" viewBox="0 0 24 24" fill="none" xmlns="http://www.w3.org/2000/svg">
<path fill-rule="evenodd" clip-rule="evenodd" d="M13.9745 2.00037C14.0175 2.00037 14.0596 2.00398 14.1005 2.01093L14.2369 2.01167C14.4409 2.01167 14.6359 2.09467 14.7779 2.24167L19.8439 7.52067C19.9769 7.65967 20.0519 7.84667 20.0519 8.03967V17.3397C20.0559 19.8087 18.0499 21.8397 15.5809 21.8657L7.3999 21.8667C4.9269 21.8237 2.9589 19.7867 3.0009 17.3267V6.49067C3.0579 4.00967 5.1069 2.01167 7.5699 2.01167L13.8485 2.01093C13.8894 2.00398 13.9316 2.00037 13.9745 2.00037ZM13.2242 3.51137L7.5729 3.51167C5.9149 3.51167 4.5399 4.85367 4.5009 6.50867V17.3397C4.4719 18.9867 5.7789 20.3387 7.4139 20.3667L7.5609 20.3657H15.5729C17.2149 20.3477 18.5539 18.9907 18.5519 17.3407L18.5512 8.98337L16.5435 8.98437C14.7125 8.97937 13.2245 7.48737 13.2245 5.65937L13.2242 3.51137ZM11.3444 9.71427C11.7584 9.71427 12.0944 10.0503 12.0944 10.4643L12.0942 12.1634L13.7936 12.1641C14.2076 12.1641 14.5436 12.5001 14.5436 12.9141C14.5436 13.3281 14.2076 13.6641 13.7936 13.6641L12.0942 13.6634L12.0944 15.3643C12.0944 15.7783 11.7584 16.1143 11.3444 16.1143C10.9304 16.1143 10.5944 15.7783 10.5944 15.3643L10.5942 13.6634L8.8946 13.6641C8.4806 13.6641 8.1446 13.3281 8.1446 12.9141C8.1446 12.5001 8.4806 12.1641 8.8946 12.1641L10.5942 12.1634L10.5944 10.4643C10.5944 10.0503 10.9304 9.71427 11.3444 9.71427ZM14.7242 4.35237L14.7245 5.65937C14.7245 6.66337 15.5415 7.48137 16.5455 7.48437L17.7282 7.48337L14.7242 4.35237Z" fill="white"/>
</svg>
