<svg width="28" height="28" viewBox="0 0 28 28" fill="none" xmlns="http://www.w3.org/2000/svg">
<path d="M0 5C0 2.23858 2.23858 0 5 0H23C25.7614 0 28 2.23858 28 5V23C28 25.7614 25.7614 28 23 28H5C2.23858 28 0 25.7614 0 23V5Z" fill="#FFE4F2"/>
<path d="M13.7987 10.5507L8.9338 15.9745V21.8284C8.9338 21.98 8.97828 22.1253 9.05746 22.2325C9.13663 22.3397 9.24402 22.3999 9.35599 22.3999L12.3129 22.3895C12.4245 22.3888 12.5314 22.3282 12.6101 22.2212C12.6888 22.1141 12.733 21.9691 12.733 21.8181V18.3995C12.733 18.2479 12.7775 18.1025 12.8566 17.9954C12.9358 17.8882 13.0432 17.828 13.1552 17.828H14.8439C14.9559 17.828 15.0633 17.8882 15.1425 17.9954C15.2216 18.1025 15.2661 18.2479 15.2661 18.3995V21.8156C15.2659 21.8908 15.2767 21.9653 15.2979 22.0348C15.319 22.1043 15.3501 22.1676 15.3893 22.2208C15.4285 22.2741 15.4751 22.3163 15.5264 22.3452C15.5777 22.374 15.6328 22.3888 15.6883 22.3888L18.6442 22.3999C18.7561 22.3999 18.8635 22.3397 18.9427 22.2325C19.0219 22.1253 19.0664 21.98 19.0664 21.8284V15.9706L14.2025 10.5507C14.1453 10.4883 14.0741 10.4543 14.0006 10.4543C13.9272 10.4543 13.8559 10.4883 13.7987 10.5507ZM21.4834 14.2372L19.2775 11.7759V6.82852C19.2775 6.71484 19.2441 6.60582 19.1847 6.52544C19.1253 6.44506 19.0448 6.3999 18.9608 6.3999H17.4831C17.3992 6.3999 17.3186 6.44506 17.2592 6.52544C17.1999 6.60582 17.1665 6.71484 17.1665 6.82852V9.42203L14.8041 6.79102C14.5774 6.53848 14.2929 6.40041 13.9993 6.40041C13.7057 6.40041 13.4212 6.53848 13.1945 6.79102L6.51518 14.2372C6.48312 14.2731 6.45659 14.3172 6.43712 14.3669C6.41764 14.4167 6.4056 14.4711 6.40168 14.5272C6.39776 14.5832 6.40204 14.6398 6.41427 14.6936C6.4265 14.7474 6.44644 14.7975 6.47296 14.8408L7.14583 15.9481C7.17228 15.9916 7.20481 16.0277 7.24156 16.0542C7.27831 16.0807 7.31856 16.0971 7.36001 16.1025C7.40145 16.1079 7.44328 16.1022 7.4831 16.0857C7.52291 16.0692 7.55993 16.0422 7.59203 16.0063L13.7987 9.08627C13.8559 9.02388 13.9272 8.98986 14.0006 8.98986C14.0741 8.98986 14.1453 9.02388 14.2025 9.08627L20.4094 16.0063C20.4415 16.0422 20.4785 16.0692 20.5182 16.0858C20.558 16.1023 20.5998 16.1081 20.6412 16.1028C20.6826 16.0975 20.7228 16.0812 20.7596 16.0549C20.7963 16.0285 20.8289 15.9926 20.8554 15.9492L21.5282 14.8419C21.5547 14.7983 21.5746 14.748 21.5867 14.6939C21.5988 14.6399 21.6029 14.5831 21.5987 14.5269C21.5945 14.4707 21.5822 14.4162 21.5624 14.3665C21.5426 14.3168 21.5158 14.2728 21.4834 14.2372Z" fill="#FF1C92"/>
</svg>
