<svg width="28" height="28" viewBox="0 0 28 28" fill="none" xmlns="http://www.w3.org/2000/svg">
<path d="M0 5C0 2.23858 2.23858 0 5 0H23C25.7614 0 28 2.23858 28 5V23C28 25.7614 25.7614 28 23 28H5C2.23858 28 0 25.7614 0 23V5Z" fill="#149954"/>
<path d="M13.5 14.4375C15.8291 14.4375 17.7188 12.5479 17.7188 10.2188C17.7188 7.88965 15.8291 6 13.5 6C11.1709 6 9.28125 7.88965 9.28125 10.2188C9.28125 12.5479 11.1709 14.4375 13.5 14.4375ZM17.25 15.375H15.6357C14.9854 15.6738 14.2617 15.8438 13.5 15.8438C12.7383 15.8438 12.0176 15.6738 11.3643 15.375H9.75C7.67871 15.375 6 17.0537 6 19.125V19.5938C6 20.3701 6.62988 21 7.40625 21H19.5938C20.3701 21 21 20.3701 21 19.5938V19.125C21 17.0537 19.3213 15.375 17.25 15.375Z" fill="#CEEBDC"/>
</svg>
