<svg width="28" height="28" viewBox="0 0 28 28" fill="none" xmlns="http://www.w3.org/2000/svg">
<path d="M0 5C0 2.23858 2.23858 0 5 0H23C25.7614 0 28 2.23858 28 5V23C28 25.7614 25.7614 28 23 28H5C2.23858 28 0 25.7614 0 23V5Z" fill="black"/>
<path d="M15.9091 16.7272C15.9091 17.0285 15.6955 17.2726 15.4318 17.2726H12.5682C12.3045 17.2726 12.0909 17.0285 12.0909 16.7272V15.0908H6.36365V19.9999C6.36365 20.8726 7.03183 21.6363 7.79547 21.6363H20.2046C20.9682 21.6363 21.6364 20.8726 21.6364 19.9999V15.0908H15.9091V16.7272ZM20.2046 9.63625H17.8182V7.99989C17.8182 7.12716 17.15 6.36353 16.3864 6.36353H11.6136C10.85 6.36353 10.1818 7.12716 10.1818 7.99989V9.63625H7.79547C7.03183 9.63625 6.36365 10.3999 6.36365 11.2726V13.9999H21.6364V11.2726C21.6364 10.3999 20.9682 9.63625 20.2046 9.63625ZM15.9091 9.63625H12.0909V8.54534H15.9091V9.63625Z" fill="white"/>
</svg>
